<svg width="258" height="256" viewBox="0 0 258 256" fill="none" xmlns="http://www.w3.org/2000/svg">
<g clip-path="url(#clip0_7_8)">
<path d="M164.411 191.915V253.627H51.4666C38.5982 253.627 28.1283 239.784 28.1283 222.771C28.1283 205.758 38.5982 191.915 51.4666 191.915H164.411Z" fill="#F2F2F2"/>
<path d="M167.185 253.152C167.185 253.781 167.002 254.385 166.677 254.83C166.352 255.275 165.911 255.525 165.451 255.525H49.4549C43.155 255.525 37.113 252.099 32.6583 246.001C28.2035 239.903 25.7009 231.632 25.7009 223.008C25.7009 214.384 28.2035 206.113 32.6583 200.015C37.113 193.917 43.155 190.491 49.4549 190.491H165.451C165.911 190.491 166.352 190.741 166.677 191.186C167.002 191.631 167.185 192.235 167.185 192.865C167.185 193.494 167.002 194.098 166.677 194.543C166.352 194.988 165.911 195.238 165.451 195.238H49.4549C44.0747 195.238 38.9148 198.164 35.1103 203.372C31.3059 208.58 29.1686 215.643 29.1686 223.008C29.1686 230.373 31.3059 237.437 35.1103 242.645C38.9148 247.853 44.0747 250.778 49.4549 250.778H165.451C165.911 250.779 166.352 251.029 166.677 251.474C167.002 251.919 167.185 252.522 167.185 253.152Z" fill="#3FC64C"/>
<path d="M164.411 206.156H43.0396C42.9476 206.156 42.8594 206.106 42.7944 206.017C42.7294 205.928 42.6928 205.807 42.6928 205.682C42.6928 205.556 42.7294 205.435 42.7944 205.346C42.8594 205.257 42.9476 205.207 43.0396 205.207H164.411C164.503 205.207 164.591 205.257 164.656 205.346C164.721 205.435 164.757 205.556 164.757 205.682C164.757 205.807 164.721 205.928 164.656 206.017C164.591 206.106 164.503 206.156 164.411 206.156Z" fill="#CCCCCC"/>
<path d="M164.411 217.549H43.0396C42.9476 217.549 42.8594 217.499 42.7944 217.41C42.7294 217.321 42.6928 217.2 42.6928 217.074C42.6928 216.949 42.7294 216.828 42.7944 216.739C42.8594 216.65 42.9476 216.6 43.0396 216.6H164.411C164.503 216.6 164.591 216.65 164.656 216.739C164.721 216.828 164.757 216.949 164.757 217.074C164.757 217.2 164.721 217.321 164.656 217.41C164.591 217.499 164.503 217.549 164.411 217.549Z" fill="#CCCCCC"/>
<path d="M164.411 228.942H43.0396C42.9476 228.942 42.8594 228.892 42.7944 228.803C42.7294 228.714 42.6928 228.593 42.6928 228.467C42.6928 228.341 42.7294 228.221 42.7944 228.132C42.8594 228.043 42.9476 227.993 43.0396 227.993H164.411C164.503 227.993 164.591 228.043 164.656 228.132C164.721 228.221 164.757 228.341 164.757 228.467C164.757 228.593 164.721 228.714 164.656 228.803C164.591 228.892 164.503 228.942 164.411 228.942Z" fill="#CCCCCC"/>
<path d="M164.411 240.335H43.0396C42.9476 240.335 42.8594 240.285 42.7944 240.196C42.7294 240.107 42.6928 239.986 42.6928 239.86C42.6928 239.734 42.7294 239.614 42.7944 239.524C42.8594 239.435 42.9476 239.385 43.0396 239.385H164.411C164.503 239.385 164.591 239.435 164.656 239.524C164.721 239.614 164.757 239.734 164.757 239.86C164.757 239.986 164.721 240.107 164.656 240.196C164.591 240.285 164.503 240.335 164.411 240.335Z" fill="#CCCCCC"/>
<path d="M251.7 203.532L223.415 251.585L135.468 154.58C125.448 143.527 123.639 123.756 131.437 110.508C139.235 97.2601 153.732 95.4738 163.752 106.526L251.7 203.532Z" fill="#F2F2F2"/>
<path d="M225.793 253.598C225.504 254.088 225.085 254.401 224.628 254.468C224.171 254.536 223.713 254.352 223.355 253.957L133.031 154.33C128.125 148.919 124.991 141.062 124.317 132.488C123.643 123.913 125.485 115.323 129.438 108.608C133.391 101.893 139.13 97.6017 145.394 96.6793C151.658 95.7569 157.933 98.2786 162.839 103.689L253.162 203.316C253.34 203.512 253.487 203.753 253.597 204.027C253.706 204.3 253.775 204.601 253.799 204.911C253.824 205.221 253.803 205.534 253.739 205.834C253.675 206.133 253.568 206.412 253.426 206.655C253.283 206.897 253.106 207.099 252.906 207.249C252.706 207.398 252.487 207.492 252.26 207.525C252.034 207.559 251.805 207.53 251.586 207.442C251.368 207.354 251.164 207.208 250.987 207.013L160.663 107.386C158.589 105.096 156.205 103.388 153.649 102.36C151.092 101.331 148.412 101.002 145.763 101.392C143.113 101.781 140.546 102.881 138.207 104.629C135.868 106.377 133.804 108.739 132.132 111.58C130.46 114.42 129.214 117.683 128.463 121.184C127.713 124.684 127.474 128.352 127.759 131.979C128.045 135.605 128.849 139.12 130.127 142.321C131.405 145.521 133.131 148.346 135.207 150.634L225.531 250.261C225.889 250.656 226.117 251.229 226.166 251.855C226.216 252.481 226.081 253.108 225.793 253.598Z" fill="#CCCCCC"/>
<path d="M245.172 214.621L150.663 110.378C150.628 110.339 150.598 110.29 150.576 110.236C150.555 110.181 150.541 110.121 150.536 110.059C150.531 109.997 150.535 109.934 150.548 109.874C150.561 109.814 150.582 109.759 150.611 109.71C150.639 109.662 150.675 109.621 150.715 109.591C150.755 109.561 150.798 109.543 150.844 109.536C150.889 109.529 150.935 109.535 150.979 109.553C151.022 109.57 151.063 109.599 151.098 109.638L245.608 213.882C245.643 213.921 245.673 213.969 245.695 214.024C245.716 214.078 245.73 214.139 245.735 214.201C245.74 214.263 245.736 214.325 245.723 214.385C245.71 214.445 245.689 214.501 245.66 214.549C245.632 214.598 245.596 214.638 245.556 214.668C245.516 214.698 245.473 214.717 245.427 214.724C245.382 214.73 245.336 214.725 245.292 214.707C245.249 214.689 245.208 214.66 245.172 214.621Z" fill="#CCCCCC"/>
<path d="M239.951 223.492L145.442 119.249C145.37 119.17 145.324 119.055 145.315 118.93C145.305 118.805 145.332 118.68 145.389 118.582C145.447 118.484 145.531 118.421 145.622 118.408C145.713 118.394 145.805 118.431 145.877 118.51L240.386 222.753C240.421 222.792 240.451 222.84 240.473 222.895C240.495 222.95 240.508 223.01 240.513 223.072C240.518 223.134 240.514 223.197 240.501 223.257C240.489 223.316 240.467 223.372 240.439 223.421C240.41 223.469 240.375 223.51 240.335 223.54C240.295 223.57 240.251 223.588 240.205 223.595C240.16 223.602 240.114 223.596 240.071 223.578C240.027 223.561 239.986 223.531 239.951 223.492Z" fill="#CCCCCC"/>
<path d="M234.729 232.364L140.22 128.12C140.148 128.041 140.102 127.927 140.093 127.802C140.083 127.676 140.11 127.551 140.167 127.453C140.225 127.355 140.309 127.292 140.4 127.279C140.492 127.265 140.583 127.302 140.655 127.381L235.164 231.624C235.2 231.664 235.229 231.712 235.251 231.767C235.273 231.821 235.286 231.881 235.291 231.943C235.296 232.005 235.292 232.068 235.279 232.128C235.266 232.188 235.245 232.243 235.217 232.292C235.188 232.34 235.153 232.381 235.113 232.411C235.073 232.441 235.029 232.459 234.984 232.466C234.938 232.473 234.893 232.467 234.849 232.449C234.805 232.432 234.764 232.403 234.729 232.364Z" fill="#CCCCCC"/>
<path d="M229.507 241.235L134.998 136.992C134.963 136.953 134.933 136.904 134.911 136.85C134.889 136.795 134.876 136.735 134.871 136.673C134.866 136.611 134.87 136.548 134.883 136.488C134.896 136.429 134.917 136.373 134.946 136.324C134.974 136.276 135.009 136.235 135.049 136.206C135.089 136.176 135.133 136.157 135.178 136.15C135.224 136.144 135.27 136.149 135.313 136.167C135.357 136.184 135.398 136.213 135.433 136.253L229.942 240.496C229.978 240.535 230.007 240.583 230.029 240.638C230.051 240.693 230.065 240.753 230.07 240.815C230.075 240.877 230.071 240.939 230.058 240.999C230.045 241.059 230.024 241.115 229.995 241.164C229.966 241.212 229.931 241.253 229.891 241.282C229.851 241.312 229.807 241.331 229.762 241.338C229.717 241.344 229.671 241.339 229.627 241.321C229.583 241.303 229.543 241.274 229.507 241.235Z" fill="#CCCCCC"/>
<path d="M257.653 256H0.346774C0.254804 256 0.1666 255.95 0.101568 255.861C0.0365348 255.772 0 255.651 0 255.525C0 255.399 0.0365348 255.279 0.101568 255.19C0.1666 255.101 0.254804 255.051 0.346774 255.051H257.653C257.745 255.051 257.833 255.101 257.898 255.19C257.963 255.279 258 255.399 258 255.525C258 255.651 257.963 255.772 257.898 255.861C257.833 255.95 257.745 256 257.653 256Z" fill="#CCCCCC"/>
<path d="M117.238 185.429L113.273 185.428L111.388 164.496L117.239 164.497L117.238 185.429Z" fill="#FFB8B8"/>
<path d="M110.441 183.878H118.087V190.468H105.628C105.628 189.602 105.752 188.745 105.994 187.946C106.236 187.146 106.591 186.42 107.038 185.808C107.485 185.196 108.015 184.711 108.599 184.38C109.183 184.048 109.809 183.878 110.441 183.878Z" fill="#2F2E41"/>
<path d="M76.7363 185.429L72.7719 185.428L70.8865 164.496L76.7377 164.497L76.7363 185.429Z" fill="#FFB8B8"/>
<path d="M69.9401 183.878H77.5858V190.468H65.1262C65.1262 189.602 65.2508 188.745 65.4927 187.946C65.7346 187.146 66.0892 186.42 66.5362 185.808C66.9832 185.196 67.5139 184.711 68.0979 184.38C68.682 184.048 69.308 183.878 69.9401 183.878Z" fill="#2F2E41"/>
<path d="M89.9778 30.1593V27.7857C89.9778 23.7255 91.1561 19.8316 93.2534 16.9605C95.3507 14.0895 98.1952 12.4766 101.161 12.4766C104.127 12.4766 106.972 14.0895 109.069 16.9605C111.166 19.8316 112.345 23.7255 112.345 27.7857V30.1593C112.345 33.0864 111.495 35.8937 109.983 37.9635C108.471 40.0333 106.421 41.1961 104.282 41.1961H98.0403C96.9815 41.1961 95.9331 40.9106 94.9549 40.356C93.9767 39.8013 93.0879 38.9883 92.3393 37.9635C91.5906 36.9386 90.9967 35.7219 90.5915 34.3829C90.1863 33.0438 89.9778 31.6086 89.9778 30.1593Z" fill="#2F2E41"/>
<path d="M101.161 42.0128C105.865 42.0128 109.678 36.7928 109.678 30.3536C109.678 23.9144 105.865 18.6944 101.161 18.6944C96.4574 18.6944 92.6441 23.9144 92.6441 30.3536C92.6441 36.7928 96.4574 42.0128 101.161 42.0128Z" fill="#FFB8B8"/>
<path d="M54.8335 70.4247C55.1792 69.9779 55.5922 69.6403 56.0434 69.4356C56.4947 69.231 56.9732 69.1643 57.4453 69.2402C57.9175 69.3161 58.3717 69.5328 58.776 69.875C59.1804 70.2173 59.525 70.6767 59.7856 71.2209L67.0868 69.3303L69.0082 75.1239L58.6701 77.5955C57.9732 78.1342 57.1561 78.3042 56.3737 78.0733C55.5913 77.8424 54.898 77.2267 54.4251 76.3428C53.9522 75.4589 53.7326 74.3682 53.8078 73.2775C53.8831 72.1867 54.2481 71.1717 54.8335 70.4247Z" fill="#FFB8B8"/>
<path d="M94.6166 49.5534L82.644 60.3502L62.4415 69.1812C62.1737 69.299 61.944 69.5402 61.7915 69.8637C61.639 70.1873 61.5731 70.5732 61.6051 70.9558L62.0458 76.1521C62.0653 76.3821 62.1198 76.604 62.2056 76.8035C62.2914 77.003 62.4068 77.1757 62.5443 77.3106C62.6817 77.4455 62.8383 77.5396 63.0038 77.5869C63.1694 77.6341 63.3404 77.6335 63.5058 77.585L82.5193 72.006C83.4395 71.7375 84.3095 71.2131 85.0755 70.4653L98.5262 57.365C99.0138 56.8875 99.4029 56.2454 99.6556 55.5011C99.9082 54.7569 100.016 53.9358 99.9682 53.1176C99.9189 52.2984 99.7146 51.5109 99.3755 50.8325C99.0364 50.1541 98.5741 49.6082 98.0341 49.2486C97.4941 48.889 96.8951 48.728 96.2959 48.7814C95.6967 48.8348 95.1179 49.1009 94.6166 49.5534Z" fill="#CCCCCC"/>
<path d="M113.344 179.489C113.04 179.489 112.742 179.368 112.487 179.14C112.233 178.912 112.032 178.588 111.909 178.207L93.735 116.732C93.6926 116.599 93.6213 116.487 93.5308 116.41C93.4404 116.334 93.335 116.298 93.2289 116.306C93.1229 116.314 93.0212 116.366 92.9375 116.456C92.8539 116.546 92.7923 116.668 92.761 116.807L77.9336 176.655C77.871 176.933 77.7674 177.191 77.6293 177.413C77.4912 177.635 77.3213 177.815 77.1303 177.944C76.9393 178.073 76.731 178.146 76.5184 178.161C76.3058 178.175 76.0933 178.129 75.894 178.027L70.9218 175.475C70.6519 175.337 70.4152 175.1 70.2378 174.79C70.0605 174.48 69.9495 174.108 69.9172 173.716C67.6804 147.042 87.1866 79.7111 87.3839 79.0343L87.4385 78.8468L105.22 84.2312L105.257 84.2864C112.351 94.8807 118.183 161.702 119.28 174.989C119.32 175.469 119.241 175.954 119.053 176.364C118.866 176.773 118.582 177.083 118.249 177.243L113.86 179.367C113.695 179.448 113.52 179.489 113.344 179.489Z" fill="#2F2E41"/>
<path d="M98.0235 86.3984C93.7154 86.3984 88.9122 85.2226 87.4338 80.3694L87.3998 80.2579L87.4457 80.1545C88.6127 77.5334 90.1551 73.0623 89.3261 72.2229C87.693 70.5701 86.9006 67.8509 86.9709 64.141C87.1237 56.0873 91.1324 48.9368 96.9462 46.348C98.569 45.6371 100.22 45.055 101.892 44.6047C103.111 44.2681 104.369 44.3051 105.576 44.7131C106.783 45.1212 107.91 45.8902 108.874 46.9648C109.85 48.0464 110.639 49.4107 111.185 50.9595C111.73 52.5084 112.018 54.2034 112.028 55.9227C112.089 64.5294 111.121 76.5168 106.163 84.7467C105.931 85.1285 105.608 85.3859 105.25 85.4736C102.865 86.0642 100.447 86.3736 98.0235 86.3984Z" fill="#CCCCCC"/>
<path d="M96.421 86.0761C96.6554 84.9248 97.2123 83.9467 97.9706 83.3544C98.7289 82.762 99.6274 82.6033 100.471 82.9126C100.643 82.9785 100.811 83.0636 100.973 83.1672L106.517 76.2608L110.372 79.8165L102.444 89.4201C102.086 90.3037 101.523 90.998 100.843 91.3925C100.164 91.787 99.4073 91.8592 98.6944 91.5974C98.2791 91.4418 97.8905 91.1751 97.551 90.8127C97.2115 90.4502 96.9279 89.9993 96.7164 89.4859C96.505 88.9724 96.3701 88.4068 96.3194 87.8215C96.2686 87.2362 96.3032 86.643 96.421 86.0761Z" fill="#FFB8B8"/>
<path d="M105.638 86.1638C105.279 86.1641 104.93 85.9939 104.652 85.6819L102.465 83.2364C102.283 83.0325 102.137 82.7748 102.038 82.4826C101.939 82.1905 101.889 81.8714 101.893 81.5493C101.896 81.2271 101.953 80.9103 102.059 80.6225C102.165 80.3346 102.317 80.0833 102.503 79.8872L111.673 70.2604C111.781 70.1457 111.853 69.977 111.871 69.7908C111.889 69.6047 111.853 69.4161 111.771 69.266L106.111 59.0238C105.454 57.8378 105.124 56.3716 105.18 54.8847C105.237 53.3978 105.676 51.9862 106.419 50.8996C107.202 49.7418 108.275 49.0292 109.424 48.9034C110.573 48.7776 111.715 49.2477 112.622 50.2205L112.658 50.2722L118.568 61.856C119.207 62.5419 119.721 63.4207 120.071 64.4239C120.421 65.427 120.597 66.5273 120.585 67.6388C120.573 68.7504 120.373 69.843 120.002 70.8314C119.63 71.8199 119.097 72.6774 118.443 73.3369L106.567 85.745C106.298 86.017 105.973 86.1638 105.638 86.1638Z" fill="#CCCCCC"/>
<path d="M93.617 27.0737V21.2889L101.161 16.7792L108.355 21.2889V27.0737C108.355 27.3255 108.282 27.567 108.152 27.745C108.022 27.9231 107.845 28.0231 107.661 28.0231H94.3105C94.1266 28.0231 93.9502 27.9231 93.8201 27.745C93.6901 27.567 93.617 27.3255 93.617 27.0737Z" fill="#2F2E41"/>
<path d="M100.815 13.244C99.7057 8.38377 102.035 2.81371 105.479 0.889896C108.923 -1.03391 113.044 0.310889 115.95 3.48931C118.856 6.66773 120.659 11.4284 121.614 16.3495C122.569 21.2707 122.751 26.4022 122.927 31.4884C127.159 32.5524 130.037 39.4227 128.571 44.9597C127.105 50.4966 121.68 53.2474 117.933 50.3534C114.186 47.4594 113.101 39.6799 115.805 35.0994C117.085 32.9321 117.799 30.2423 117.836 27.4561C117.873 24.6698 117.23 21.9464 116.008 19.7172C114.786 17.488 113.056 15.8804 111.092 15.1491C109.128 14.4177 107.041 14.6044 105.163 15.6795C103.078 16.8734 100.461 13.7715 100.815 13.244Z" fill="#2F2E41"/>
<path d="M53.2694 47.9842C48.2033 47.9387 43.2005 46.4388 38.5842 43.5814C38.3094 43.4137 38.0762 43.1403 37.9129 42.7944C37.7496 42.4485 37.6633 42.045 37.6646 41.6332V24.3455C37.6651 23.7792 37.8296 23.2362 38.1222 22.8357C38.4147 22.4353 38.8114 22.21 39.2251 22.2094H67.3138C67.7275 22.21 68.1242 22.4353 68.4167 22.8358C68.7093 23.2362 68.8738 23.7792 68.8743 24.3455V41.6332C68.8755 42.0451 68.7893 42.4485 68.626 42.7944C68.4627 43.1403 68.2295 43.4137 67.9547 43.5814C63.3384 46.4388 58.3356 47.9387 53.2694 47.9842Z" fill="#3FC64C"/>
<path d="M53.2656 33.9791C53.0573 33.9793 52.8512 33.9226 52.6592 33.8122L30.3852 20.948C30.098 20.7821 29.8536 20.5022 29.6836 20.1445C29.5137 19.7867 29.4259 19.3675 29.4316 18.9408C29.4373 18.5141 29.5363 18.0995 29.7157 17.7505C29.8951 17.4016 30.1468 17.1341 30.4383 16.9828L52.7126 5.41537C53.0713 5.22821 53.468 5.22936 53.8262 5.41862L75.802 16.986C76.0918 17.1386 76.3418 17.4061 76.52 17.7542C76.6981 18.1024 76.7963 18.5154 76.8021 18.9404C76.8078 19.3654 76.7208 19.7831 76.5522 20.14C76.3835 20.4969 76.1409 20.7769 75.8554 20.944L53.8793 33.808C53.6853 33.9212 53.4765 33.9793 53.2656 33.9791Z" fill="#3FC64C"/>
<path d="M40.2654 44.7577C41.4145 44.7577 42.346 43.4825 42.346 41.9095C42.346 40.3365 41.4145 39.0613 40.2654 39.0613C39.1163 39.0613 38.1848 40.3365 38.1848 41.9095C38.1848 43.4825 39.1163 44.7577 40.2654 44.7577Z" fill="#3F3D56"/>
<path opacity="0.2" d="M75.9313 19.118L53.9552 31.9821C53.7839 32.0824 53.5995 32.1344 53.4132 32.135C53.2269 32.1356 53.0423 32.0848 52.8707 31.9857L30.5967 19.1218C30.317 18.9641 30.0836 18.6833 29.9335 18.3238C29.8352 18.5569 29.7744 18.816 29.7549 19.0838C29.7354 19.3516 29.7578 19.622 29.8205 19.8771C29.8833 20.1321 29.9849 20.366 30.1187 20.5632C30.2526 20.7603 30.4155 20.9163 30.5967 21.0206L52.8707 33.8845C53.0423 33.9836 53.2269 34.0344 53.4132 34.0338C53.5995 34.0332 53.7839 33.9812 53.9552 33.8809L75.9313 21.0168C76.1116 20.9116 76.2736 20.7552 76.4064 20.5579C76.5393 20.3607 76.6401 20.1271 76.7022 19.8726C76.7643 19.618 76.7863 19.3484 76.7666 19.0814C76.747 18.8145 76.6862 18.5562 76.5883 18.3238C76.4392 18.6804 76.2083 18.9596 75.9313 19.118Z" fill="black"/>
<path d="M40.4402 41.8983C40.5322 41.8983 40.6204 41.8483 40.6854 41.7593C40.7505 41.6703 40.787 41.5495 40.787 41.4236V25.5395L52.224 19.8358C52.316 19.8377 52.4047 19.7895 52.4707 19.7018C52.5367 19.6141 52.5746 19.4941 52.576 19.3682C52.5773 19.2423 52.5421 19.1208 52.4781 19.0305C52.414 18.9401 52.3263 18.8883 52.2344 18.8864L40.7973 24.5901C40.7053 24.5872 40.6138 24.6099 40.5283 24.6568C40.4429 24.7037 40.3653 24.7739 40.3003 24.8631C40.2345 24.9512 40.1824 25.0565 40.1468 25.1726C40.1113 25.2888 40.0932 25.4135 40.0934 25.5395V41.4236C40.0935 41.5495 40.13 41.6703 40.195 41.7593C40.2601 41.8483 40.3483 41.8983 40.4402 41.8983Z" fill="#3F3D56"/>
</g>
<defs>
<clipPath id="clip0_7_8">
<rect width="258" height="256" fill="white"/>
</clipPath>
</defs>
</svg>
